HIERARCHY
ROOT Hips
{
 OFFSET 0.000000 0.000000 0.000000
 CHANNELS 6 Xposition Yposition Zposition Yrotation Xrotation Zrotation
 JOINT Chest
 {
  OFFSET 0.000000 9.585900 0.002600
  CHANNELS 3 Yrotation Xrotation Zrotation
  JOINT Chest2
  {
   OFFSET 0.000000 9.601200 -0.005300
   CHANNELS 3 Yrotation Xrotation Zrotation
   JOINT Chest3
   {
    OFFSET 0.000000 9.561800 0.000000
    CHANNELS 3 Yrotation Xrotation Zrotation
    JOINT Chest4
    {
     OFFSET 0.000000 9.552100 0.000000
     CHANNELS 3 Yrotation Xrotation Zrotation
     JOINT Neck
     {
      OFFSET 0.000000 14.453000 0.000000
      CHANNELS 3 Yrotation Xrotation Zrotation
      JOINT Head
      {
       OFFSET 0.000000 8.936500 -0.011300
       CHANNELS 3 Yrotation Xrotation Zrotation
       End Site
       {
        OFFSET 0.000000 17.073600 -0.006000
       }
      }
     }
     JOINT RightCollar
     {
      OFFSET -2.921100 9.558500 0.000000
      CHANNELS 3 Yrotation Xrotation Zrotation
      JOINT RightShoulder
      {
       OFFSET -13.519700 0.000000 0.000000
       CHANNELS 3 Yrotation Xrotation Zrotation
       JOINT RightElbow
       {
        OFFSET 0.000000 -29.696600 0.000000
        CHANNELS 3 Yrotation Xrotation Zrotation
        JOINT RightWrist
        {
         OFFSET 0.000000 -24.004700 0.000000
         CHANNELS 3 Yrotation Xrotation Zrotation
         End Site
         {
          OFFSET 0.000000 -17.728500 0.000000
         }
        }
       }
      }
     }
     JOINT LeftCollar
     {
      OFFSET 2.921100 9.558500 0.000000
      CHANNELS 3 Yrotation Xrotation Zrotation
      JOINT LeftShoulder
      {
       OFFSET 13.519700 0.000000 0.000000
       CHANNELS 3 Yrotation Xrotation Zrotation
       JOINT LeftElbow
       {
        OFFSET 0.000000 -29.696600 0.000000
        CHANNELS 3 Yrotation Xrotation Zrotation
        JOINT LeftWrist
        {
         OFFSET 0.000000 -24.004700 0.000000
         CHANNELS 3 Yrotation Xrotation Zrotation
         End Site
         {
          OFFSET 0.000000 -17.728500 0.000000
         }
        }
       }
      }
     }
    }
   }
  }
 }
 JOINT RightHip
 {
  OFFSET -7.771700 -0.012900 -0.001300
  CHANNELS 3 Yrotation Xrotation Zrotation
  JOINT RightKnee
  {
   OFFSET 0.000000 -40.869800 0.001200
   CHANNELS 3 Yrotation Xrotation Zrotation
   JOINT RightAnkle
   {
    OFFSET 0.000000 -39.717900 0.002100
    CHANNELS 3 Yrotation Xrotation Zrotation
    JOINT RightToe
    {
     OFFSET 0.000000 -4.965400 11.033500
     CHANNELS 3 Yrotation Xrotation Zrotation
     End Site
     {
      OFFSET 0.000000 -1.423100 5.872300
     }
    }
   }
  }
 }
 JOINT LeftHip
 {
  OFFSET 7.771700 -0.012900 -0.001300
  CHANNELS 3 Yrotation Xrotation Zrotation
  JOINT LeftKnee
  {
   OFFSET 0.000000 -40.869800 0.001200
   CHANNELS 3 Yrotation Xrotation Zrotation
   JOINT LeftAnkle
   {
    OFFSET 0.000000 -39.717900 0.002100
    CHANNELS 3 Yrotation Xrotation Zrotation
    JOINT LeftToe
    {
     OFFSET 0.000000 -4.965400 11.033500
     CHANNELS 3 Yrotation Xrotation Zrotation
     End Site
     {
      OFFSET 0.000000 -1.423100 5.872300
     }
    }
   }
  }
 }
}
MOTION
Frames: 6
Frame Time: 0.008333
-7.209804 55.438157 26.882931 178.215991 -29.390308 -11.560596 0.638307 12.305809 6.834154 0.203892 7.243895 2.320963 0.296686 9.019560 2.897129 0.194396 7.155346 2.288331 6.827743 23.080486 -0.698220 7.627150 -0.699585 -2.363098 0.532566 4.154094 -2.570053 -12.586557 -7.921045 6.176233 -149.695126 -83.059834 165.793869 7.112514 -9.210352 -15.604949 -10.329495 5.006322 -3.325658 7.602793 -2.991844 -2.104210 178.215227 -78.709408 -169.796866 20.688320 -15.928639 4.146361 -19.942583 -34.645777 10.049930 40.071673 85.102418 36.901906 1.793175 -19.485915 -1.669524 -1.015177 2.480744 -0.452269 -16.814202 -48.353085 19.523434 171.315717 79.162278 166.920648 -0.683756 -16.787147 1.059529 -1.171573 -2.136653 -0.537267
-7.212664 55.441135 26.879437 178.263987 -29.381797 -11.541737 0.591664 12.332657 6.802657 0.202921 7.235830 2.317392 0.300336 9.051273 2.909063 0.192892 7.166916 2.291056 6.820676 23.090959 -0.685843 7.613467 -0.686894 -2.347611 0.521091 4.124895 -2.580394 -12.621268 -7.855493 6.162069 -151.235127 -83.086805 167.319358 7.138852 -9.250585 -15.677224 -10.356923 5.029265 -3.330908 7.584716 -3.002032 -2.101507 178.882857 -78.721063 -170.443667 20.675008 -15.994677 4.035716 -19.957373 -34.660225 10.006194 40.103976 85.108143 36.935273 1.750818 -19.474124 -1.673505 -0.979443 2.461952 -0.437761 -16.797649 -48.361333 19.466834 171.348287 79.170937 166.956950 -0.668414 -16.802671 1.036099 -1.123175 -2.119757 -0.522002
-7.210414 55.444113 26.877866 178.268278 -29.371205 -11.535875 0.592390 12.378128 6.818206 0.201666 7.198908 2.302657 0.300641 9.083044 2.920502 0.202083 7.237261 2.316816 6.798989 23.046296 -0.702187 7.605939 -0.672061 -2.330782 0.479275 4.086913 -2.592061 -12.637554 -7.846924 6.141183 -152.830029 -83.133444 168.896107 7.166978 -9.285255 -15.719997 -10.379761 4.945754 -3.348774 7.563424 -2.969813 -2.092628 179.114210 -78.691618 -170.656694 20.634708 -15.987532 3.923076 -19.960680 -34.670702 10.005218 40.152552 85.110676 36.985074 1.743798 -19.479440 -1.677197 -0.977216 2.462780 -0.437124 -16.783624 -48.369279 19.459148 171.360088 79.177869 166.966984 -0.592091 -16.811347 1.006204 -1.180559 -2.112106 -0.508260
-7.209729 55.446839 26.875473 178.276019 -29.363342 -11.525853 0.582014 12.401642 6.813623 0.204239 7.207610 2.307619 0.296291 9.095122 2.922989 0.205524 7.217238 2.309724 6.804559 23.087357 -0.670691 7.607768 -0.656121 -2.314107 0.443843 4.139597 -2.572317 -12.642056 -7.860466 6.127160 -154.455040 -83.219302 170.485916 7.196383 -9.322215 -15.731320 -10.394802 4.955723 -3.351420 7.546495 -2.937140 -2.084141 179.132721 -78.743763 -170.713877 20.631411 -16.030229 3.823542 -19.955644 -34.680764 10.000528 40.218561 85.113692 37.048126 1.721080 -19.488063 -1.671970 -0.970542 2.463775 -0.434069 -16.748456 -48.370490 19.453579 171.438162 79.192834 167.043819 -0.611765 -16.838313 1.012979 -1.164587 -2.086184 -0.495497
-7.208988 55.448526 26.874285 178.279200 -29.347031 -11.518647 0.573809 12.416798 6.811824 0.202188 7.235928 2.318276 0.291276 9.086823 2.918614 0.213648 7.197120 2.303712 6.811601 23.128687 -0.638861 7.618991 -0.638624 -2.298542 0.416422 4.174014 -2.561050 -12.643103 -7.873835 6.118774 -156.126867 -83.340235 172.107757 7.227652 -9.362902 -15.722074 -10.420327 4.997929 -3.355414 7.535009 -2.939000 -2.080583 178.682745 -78.803991 -170.325151 20.597605 -16.048991 3.730367 -19.954823 -34.699005 10.000254 40.265145 85.116433 37.094051 1.719040 -19.494635 -1.672139 -0.973728 2.467090 -0.433907 -16.737749 -48.385029 19.457527 171.473547 79.198291 167.072875 -0.609326 -16.844110 1.017742 -1.160941 -2.080375 -0.493386
-7.209131 55.450175 26.871996 178.281369 -29.336812 -11.510117 0.566469 12.436299 6.807230 0.202666 7.227342 2.317831 0.281150 9.115405 2.925839 0.213662 7.208253 2.307515 6.825697 23.141669 -0.621822 7.622062 -0.659811 -2.317087 0.400315 4.178025 -2.557910 -12.623218 -7.923517 6.106930 -157.807020 -83.507359 173.711137 7.262729 -9.405207 -15.704514 -10.473320 5.049755 -3.352502 7.577596 -3.017478 -2.106801 178.005613 -78.880077 -169.717651 20.556073 -16.009384 3.634111 -19.946635 -34.713898 9.996904 40.324287 85.122348 37.152527 1.712589 -19.499615 -1.669617 -0.976339 2.466336 -0.432946 -16.731370 -48.398543 19.459193 171.467746 79.194314 167.053275 -0.599993 -16.831298 1.029588 -1.174111 -2.095358 -0.498547
